<?xml version="1.0" standalone="no"?><!DOCTYPE svg PUBLIC "-//W3C//DTD SVG 1.1//EN" "http://www.w3.org/Graphics/SVG/1.1/DTD/svg11.dtd"
><svg
  class="icon"
  width="256px"
  height="204.80px"
  viewBox="0 0 1280 1024"
  version="1.1"
  xmlns="http://www.w3.org/2000/svg"
>
  <path
    d="M1184 1024h-1088C38.4 1024 0 985.6 0 928v-832C0 38.4 38.4 0 96 0h1088c57.6 0 96 38.4 96 96v832c0 57.6-38.4 96-96 96zM96 64c-19.2 0-32 12.8-32 32v832c0 19.2 12.8 32 32 32h1088c19.2 0 32-12.8 32-32v-832c0-19.2-12.8-32-32-32h-1088z"
    fill="#FFFFFF"
  />
  <path
    d="M1184 1024h-1088C38.4 1024 0 985.6 0 928v-832C0 38.4 38.4 0 96 0h1088c57.6 0 96 38.4 96 96v832c0 57.6-38.4 96-96 96zM96 64c-19.2 0-32 12.8-32 32v832c0 19.2 12.8 32 32 32h1088c19.2 0 32-12.8 32-32v-832c0-19.2-12.8-32-32-32h-1088z"
    fill="#FFFFFF"
  />
  <path
    d="M307.2 512c0 19.2 12.8 38.4 25.6 51.2 19.2 12.8 38.4 12.8 57.6 0 12.8-12.8 25.6-32 25.6-51.2s-12.8-38.4-25.6-51.2c-19.2-12.8-38.4-12.8-57.6 0-19.2 12.8-25.6 32-25.6 51.2z m275.2 0c0 32 25.6 57.6 57.6 57.6s57.6-25.6 57.6-57.6-25.6-57.6-57.6-57.6-57.6 25.6-57.6 57.6z m281.6 0c0 32 25.6 57.6 57.6 57.6s57.6-25.6 57.6-57.6-25.6-57.6-57.6-57.6-57.6 25.6-57.6 57.6z"
    fill="#FFFFFF"
  />
  <path
    d="M96 32h1088c38.4 0 64 25.6 64 64v832c0 38.4-25.6 64-64 64h-1088c-38.4 0-64-25.6-64-64v-832c0-38.4 25.6-64 64-64z"
    fill="#FFFFFF"
  />
</svg>
